<?xml version="1.0" standalone="no"?>
<!DOCTYPE svg PUBLIC "-//W3C//DTD SVG 20010904//EN"
 "http://www.w3.org/TR/2001/REC-SVG-20010904/DTD/svg10.dtd">
<svg version="1.0" xmlns="http://www.w3.org/2000/svg"
 width="512" height="512" viewBox="0 0 323.050163 332.487331"
 preserveAspectRatio="xMidYMid meet">
<metadata>Created by Svg.la</metadata>
<g transform="translate(-350.988708,676.000000) scale(0.100000,-0.100000)"
fill="#942dfb" stroke="none">
<path d="M4906 6723 c-3 -21 -6 -63 -6 -93 0 -109 -11 -161 -36 -172 -23 -11
-39 -47 -26 -60 12 -11 92 43 97 66 3 11 8 71 13 131 l7 110 166 3 166 2 7
-31 c3 -17 7 -64 7 -103 2 -103 9 -127 48 -153 43 -29 61 -29 61 0 0 14 -11
28 -30 39 -28 16 -30 20 -30 81 0 35 -3 98 -6 140 l-7 77 -212 0 -212 0 -7
-37z"/>
<path d="M4269 6497 c-48 -34 -123 -88 -168 -120 -44 -32 -83 -62 -87 -68 -3
-6 17 -46 46 -89 l52 -79 -27 -35 c-15 -20 -33 -36 -41 -36 -7 0 -46 18 -86
40 -40 22 -76 40 -80 40 -3 0 -17 -19 -31 -42 -13 -24 -59 -101 -101 -172 -42
-72 -76 -133 -76 -137 0 -4 45 -41 100 -84 55 -42 100 -82 100 -88 0 -9 -87
-250 -95 -265 -1 -1 -61 -7 -133 -14 l-132 -11 0 -218 c0 -246 -7 -229 91
-229 25 0 74 -3 108 -7 51 -5 64 -10 71 -27 49 -121 91 -248 87 -260 -4 -9
-51 -49 -106 -89 l-101 -74 63 -109 c87 -151 149 -254 152 -254 2 0 37 16 78
35 41 19 79 35 84 35 5 0 24 -18 42 -40 l32 -40 -50 -86 c-28 -47 -51 -89 -51
-93 0 -8 279 -210 317 -230 12 -6 26 -11 31 -11 5 0 44 43 88 96 43 53 95 110
114 126 29 24 32 30 20 38 -38 24 -54 12 -168 -122 -62 -74 -84 -90 -96 -69
-3 5 -57 45 -121 90 -63 45 -117 86 -120 91 -3 6 7 29 23 52 40 58 62 103 62
125 0 28 -88 123 -113 123 -12 0 -52 -14 -90 -29 l-67 -29 -64 106 c-65 110
-96 167 -96 176 0 3 33 30 73 59 79 58 117 100 117 126 0 9 -26 84 -57 168
-66 173 -47 157 -210 169 l-93 7 0 173 0 172 68 7 c37 4 91 10 121 14 l54 6
54 135 c76 192 76 192 19 245 -26 23 -69 58 -96 76 -27 19 -49 39 -47 45 6 26
153 264 164 264 6 0 40 -13 75 -30 34 -16 70 -30 79 -30 21 0 109 94 109 116
0 10 -18 48 -40 85 -22 37 -40 71 -40 76 0 10 244 187 263 191 8 2 39 -28 70
-65 86 -105 118 -133 145 -127 12 4 22 10 22 15 0 5 -24 32 -53 61 -29 29 -79
83 -112 120 l-60 68 -86 -63z"/>
<path d="M5878 6547 c-8 -6 -48 -52 -88 -100 -40 -49 -86 -97 -102 -107 l-30
-18 26 -18 c27 -17 27 -17 63 17 19 19 62 66 94 106 l60 72 72 -52 c100 -72
197 -149 197 -156 0 -3 -21 -37 -45 -75 -25 -38 -45 -73 -45 -77 0 -4 23 -33
52 -64 58 -64 58 -64 161 -18 38 17 61 23 68 16 5 -5 44 -65 85 -134 l76 -124
-33 -25 c-17 -14 -59 -48 -93 -76 -56 -47 -61 -54 -60 -90 1 -34 61 -210 98
-284 12 -26 25 -30 189 -45 l67 -7 0 -172 0 -172 -120 -11 c-67 -6 -123 -13
-126 -15 -12 -12 -114 -293 -114 -314 0 -31 37 -73 120 -134 39 -29 70 -55 70
-59 0 -4 -13 -27 -28 -52 -15 -24 -50 -82 -76 -129 -27 -47 -54 -88 -59 -92
-6 -3 -23 0 -38 8 -15 7 -50 23 -79 34 l-51 20 -26 -27 c-14 -16 -39 -45 -54
-67 -27 -36 -28 -40 -15 -71 8 -18 30 -58 50 -89 l35 -55 -32 -24 c-18 -14
-80 -58 -138 -99 l-106 -75 -89 106 c-56 66 -98 107 -112 109 -39 6 -35 -23
10 -69 24 -24 74 -81 112 -126 l68 -82 57 38 c121 83 286 203 289 212 2 5 -5
21 -16 36 -35 49 -82 133 -82 146 0 7 16 28 35 47 l35 34 76 -37 c41 -21 79
-35 84 -32 15 9 212 343 209 353 -2 6 -47 43 -99 84 -61 47 -96 82 -98 96 -3
21 83 258 97 267 4 2 54 7 112 10 57 3 114 8 127 11 l22 4 -2 218 -3 217 -65
7 c-36 3 -95 9 -132 13 -65 6 -68 8 -77 38 -5 18 -25 72 -45 122 -20 49 -35
99 -34 110 2 11 40 48 93 88 49 37 94 72 99 77 8 8 -142 272 -192 337 l-17 23
-83 -43 -83 -42 -29 35 c-16 19 -30 39 -30 43 0 4 23 43 51 85 l51 77 -29 22
c-49 38 -267 199 -294 216 -20 14 -28 15 -41 4z"/>
<path d="M4955 6373 c-64 -10 -188 -45 -238 -67 -236 -105 -517 -363 -661
-608 -39 -68 -103 -221 -132 -318 -34 -116 -43 -307 -20 -438 26 -147 113
-352 221 -518 69 -106 240 -280 370 -377 114 -85 266 -161 375 -189 126 -33
379 -32 502 0 125 33 195 64 296 130 462 304 734 800 682 1245 -17 148 -101
375 -188 511 -96 149 -242 304 -387 413 -44 33 -85 62 -90 64 -6 2 -42 23 -80
46 -48 29 -107 52 -185 74 -103 28 -132 32 -275 34 -88 2 -173 1 -190 -2z
m135 -348 l0 -265 -37 0 c-37 1 -189 13 -309 26 -34 3 -67 9 -73 14 -28 17
114 240 226 356 58 59 160 133 186 134 4 0 7 -119 7 -265z m135 240 c67 -40
188 -168 258 -274 71 -105 111 -180 103 -188 -16 -16 -390 -51 -420 -40 -14 6
-16 34 -16 199 0 212 8 328 22 328 5 0 29 -11 53 -25z m-332 -42 c-91 -84
-175 -194 -239 -310 -39 -72 -62 -103 -74 -103 -24 0 -291 67 -299 75 -3 4 33
44 81 91 91 88 218 177 315 221 75 34 221 81 253 82 22 1 17 -6 -37 -56z m552
20 c103 -33 189 -76 303 -153 84 -56 222 -181 222 -201 0 -12 -257 -79 -305
-79 -8 0 -27 24 -41 53 -64 127 -168 268 -267 360 l-62 58 35 -6 c19 -4 71
-18 115 -32z m-1040 -451 c77 -18 145 -36 152 -37 9 -3 5 -25 -13 -77 -44
-130 -94 -388 -94 -488 0 -7 -78 -10 -233 -10 l-233 0 8 78 c16 157 90 354
192 512 37 57 50 70 64 64 9 -4 80 -23 157 -42z m1660 -22 c44 -66 115 -212
143 -295 27 -79 52 -204 52 -255 l0 -40 -234 0 -233 0 -7 85 c-9 116 -40 274
-77 385 -17 51 -27 96 -22 100 4 4 35 12 68 19 33 6 105 24 160 40 55 16 103
26 106 22 4 -3 23 -31 44 -61z m-1345 -41 c47 -6 150 -14 230 -17 142 -7 145
-7 144 -29 0 -13 -1 -131 -2 -263 l-2 -240 -291 0 -292 0 6 83 c3 45 15 129
27 187 21 106 79 290 90 290 3 0 44 -5 90 -11z m939 -96 c43 -149 58 -222 70
-335 6 -54 11 -102 11 -108 0 -7 -98 -10 -295 -10 l-295 0 2 263 3 262 145 7
c80 4 172 11 205 16 33 5 74 10 91 11 l31 1 32 -107z m-1204 -610 c10 -129 40
-298 69 -389 14 -43 26 -84 26 -90 0 -6 -33 -18 -73 -28 -40 -9 -117 -32 -170
-51 l-97 -33 -24 31 c-103 138 -185 370 -201 565 l-6 82 234 0 235 0 7 -87z
m635 -168 l0 -255 -57 0 c-67 0 -307 -27 -372 -41 -52 -12 -52 -12 -82 85 -38
126 -59 239 -66 354 l-6 112 291 0 292 0 0 -255z m650 230 c0 -105 -41 -339
-82 -468 -19 -60 -24 -68 -42 -63 -63 15 -174 29 -309 40 l-152 11 -3 253 -2
252 295 0 295 0 0 -25z m525 -37 c-23 -232 -96 -433 -222 -617 -1 -2 -40 10
-85 28 -79 30 -129 46 -225 70 -41 11 -41 12 -31 44 48 152 88 370 88 482 l0
55 240 0 241 0 -6 -62z m-1175 -808 c0 -221 -3 -300 -12 -300 -47 0 -221 165
-305 290 -42 62 -143 249 -143 264 0 2 51 11 113 20 156 22 161 23 260 25 l87
1 0 -300z m357 285 c144 -19 163 -24 163 -39 0 -21 -84 -178 -140 -261 -88
-133 -280 -308 -307 -281 -4 4 -9 140 -11 302 l-3 294 90 0 c49 0 143 -7 208
-15z m-814 -159 c80 -160 185 -298 307 -400 l45 -38 -40 7 c-185 31 -394 138
-559 286 -57 51 -136 143 -136 158 0 13 268 98 316 100 5 1 36 -50 67 -113z
m1162 89 c96 -26 205 -66 205 -75 0 -3 -26 -36 -57 -74 -105 -124 -313 -269
-461 -321 -83 -29 -204 -56 -212 -48 -3 3 2 8 10 10 30 10 201 194 251 270 28
43 70 120 94 171 32 67 49 92 62 92 10 0 59 -11 108 -25z"/>
<path d="M5710 6226 c19 -14 82 -61 140 -104 60 -44 132 -110 170 -153 65 -76
162 -213 196 -279 16 -30 19 -32 22 -14 9 56 -113 248 -236 370 -108 108 -203
171 -302 199 -21 6 -20 3 10 -19z"/>
<path d="M4468 6215 c-110 -56 -238 -168 -328 -287 -69 -91 -130 -208 -130
-248 0 -20 9 -10 43 45 130 216 271 367 429 459 92 53 80 80 -14 31z"/>
<path d="M4000 4578 c0 -86 125 -282 264 -415 52 -51 116 -104 141 -118 54
-32 145 -68 145 -57 0 4 -28 25 -63 48 -91 60 -209 157 -263 217 -55 61 -132
175 -181 267 -40 74 -43 79 -43 58z"/>
<path d="M6196 4509 c-112 -199 -272 -371 -456 -489 -68 -43 -49 -51 33 -12
173 81 401 336 462 515 27 81 11 75 -39 -14z"/>
<path d="M4840 3780 c0 -12 12 -31 27 -44 26 -23 27 -28 33 -154 3 -72 9 -134
13 -139 10 -10 412 -11 422 -1 4 4 10 67 13 140 5 130 6 133 34 157 29 27 38
61 14 61 -7 0 -28 -10 -47 -23 -39 -26 -46 -49 -48 -158 0 -42 -4 -91 -7 -108
l-7 -31 -166 2 -166 3 -7 115 c-9 151 -11 156 -58 180 -49 25 -50 25 -50 0z"/>
</g>
</svg>
